<svg width="20" height="20" viewBox="0 0 20 20" fill="none" xmlns="http://www.w3.org/2000/svg">
<g clip-path="url(#clip0_1_945)">
<path d="M19.7625 7.6376L10.3875 0.137598C10.2766 0.0488457 10.1389 0.000488281 9.99687 0.000488281C9.85487 0.000488281 9.7171 0.0488457 9.60625 0.137598L0.231247 7.6376C0.13011 7.71874 0.0567112 7.82932 0.0212208 7.95403C-0.0142696 8.07874 -0.0100946 8.2114 0.0331672 8.33364C0.0764291 8.45587 0.156636 8.56162 0.262675 8.63624C0.368715 8.71086 0.495337 8.75065 0.624997 8.7501H1.875V19.3751C1.875 19.5409 1.94085 19.6998 2.05806 19.817C2.17527 19.9342 2.33424 20.0001 2.5 20.0001H15V18.7501H12.5V13.1251C12.5 12.9593 12.4342 12.8004 12.3169 12.6832C12.1997 12.5659 12.0408 12.5001 11.875 12.5001H8.125C7.95924 12.5001 7.80027 12.5659 7.68306 12.6832C7.56585 12.8004 7.5 12.9593 7.5 13.1251V18.7501H3.125V8.7501H13.75V7.5001H2.40625L10 1.4251L17.5937 7.5001H17.5C17.3342 7.5001 17.1753 7.56595 17.0581 7.68316C16.9408 7.80037 16.875 7.95934 16.875 8.1251V11.8751H18.125V8.7501H19.375C19.5041 8.74935 19.6299 8.70863 19.7349 8.63353C19.8399 8.55843 19.9191 8.45263 19.9616 8.33069C20.0041 8.20875 20.0078 8.07664 19.9721 7.95253C19.9364 7.82842 19.8632 7.7184 19.7625 7.6376ZM8.75 13.7501H11.25V18.7501H8.75V13.7501Z" fill="white"/>
<path d="M15.625 16.6188L14.8187 15.8125L13.9375 16.6937L15.1875 17.9437C15.3046 18.0602 15.463 18.1255 15.6281 18.1255C15.7932 18.1255 15.9516 18.0602 16.0687 17.9437L19.8187 14.1937L18.9375 13.3125L15.625 16.6188Z" fill="white"/>
</g>
<defs>
<clipPath id="clip0_1_945">
<rect width="20" height="20" fill="white"/>
</clipPath>
</defs>
</svg>
